<svg width="24" height="24" viewBox="0 0 24 24" fill="none" xmlns="http://www.w3.org/2000/svg">
<path d="M21.6928 12.4631C21.6361 12.3261 21.54 12.2089 21.4167 12.1265C21.2933 12.044 21.1483 12 21 12H17.25V4.5C17.25 4.10218 17.092 3.72064 16.8107 3.43934C16.5294 3.15804 16.1478 3 15.75 3H8.25001C7.85219 3 7.47066 3.15804 7.18935 3.43934C6.90805 3.72064 6.75001 4.10218 6.75001 4.5V12H3.00001C2.85159 11.9999 2.70647 12.0438 2.58302 12.1262C2.45958 12.2086 2.36336 12.3258 2.30654 12.4629C2.24973 12.6 2.23488 12.7509 2.26386 12.8965C2.29285 13.042 2.36438 13.1757 2.46939 13.2806L11.4694 22.2806C11.539 22.3504 11.6218 22.4057 11.7128 22.4434C11.8039 22.4812 11.9015 22.5006 12 22.5006C12.0986 22.5006 12.1962 22.4812 12.2872 22.4434C12.3783 22.4057 12.461 22.3504 12.5306 22.2806L21.5306 13.2806C21.6355 13.1757 21.7069 13.042 21.7357 12.8965C21.7646 12.751 21.7497 12.6002 21.6928 12.4631ZM12 20.6897L4.81032 13.5H7.50001C7.69892 13.5 7.88969 13.421 8.03034 13.2803C8.17099 13.1397 8.25001 12.9489 8.25001 12.75V4.5H15.75V12.75C15.75 12.9489 15.829 13.1397 15.9697 13.2803C16.1103 13.421 16.3011 13.5 16.5 13.5H19.1897L12 20.6897Z" fill="#838383"/>
</svg>
