<svg width="24" height="24" viewBox="0 0 24 24" fill="none" xmlns="http://www.w3.org/2000/svg">
<path d="M2.30718 11.5369C2.36391 11.6739 2.46002 11.7911 2.58334 11.8735C2.70666 11.956 2.85165 12 2.99999 12H6.74999L6.74999 19.5C6.74999 19.8978 6.90802 20.2794 7.18933 20.5607C7.47063 20.842 7.85216 21 8.24999 21H15.75C16.1478 21 16.5293 20.842 16.8106 20.5607C17.092 20.2794 17.25 19.8978 17.25 19.5V12H21C21.1484 12.0001 21.2935 11.9562 21.417 11.8738C21.5404 11.7914 21.6366 11.6742 21.6935 11.5371C21.7503 11.4 21.7651 11.2491 21.7361 11.1035C21.7071 10.958 21.6356 10.8243 21.5306 10.7194L12.5306 1.71937C12.461 1.64964 12.3782 1.59432 12.2872 1.55658C12.1961 1.51884 12.0985 1.49941 12 1.49941C11.9014 1.49941 11.8038 1.51884 11.7128 1.55658C11.6217 1.59432 11.539 1.64964 11.4694 1.71937L2.46936 10.7194C2.36451 10.8243 2.29313 10.958 2.26426 11.1035C2.23539 11.249 2.25033 11.3998 2.30718 11.5369ZM12 3.31031L19.1897 10.5H16.5C16.3011 10.5 16.1103 10.579 15.9697 10.7197C15.829 10.8603 15.75 11.0511 15.75 11.25V19.5H8.24999L8.24999 11.25C8.24999 11.0511 8.17097 10.8603 8.03032 10.7197C7.88967 10.579 7.6989 10.5 7.49999 10.5H4.8103L12 3.31031Z" fill="#FAFAFA"/>
<path d="M4.73041 10.6527C4.77296 10.7554 4.84504 10.8433 4.93753 10.9051C5.03002 10.967 5.13876 11 5.25002 11H8.06252V16.625C8.06252 16.9234 8.18104 17.2095 8.39202 17.4205C8.603 17.6315 8.88915 17.75 9.18752 17.75H14.8125C15.1109 17.75 15.397 17.6315 15.608 17.4205C15.819 17.2095 15.9375 16.9234 15.9375 16.625V11H18.75C18.8613 11.0001 18.9702 10.9671 19.0628 10.9053C19.1553 10.8435 19.2275 10.7557 19.2701 10.6528C19.3127 10.55 19.3239 10.4368 19.3021 10.3276C19.2804 10.2185 19.2267 10.1182 19.148 10.0395L12.398 3.28953C12.3457 3.23723 12.2837 3.19574 12.2154 3.16743C12.1471 3.13913 12.0739 3.12456 12 3.12456C11.9261 3.12456 11.8529 3.13913 11.7846 3.16743C11.7163 3.19574 11.6543 3.23723 11.602 3.28953L4.85205 10.0395C4.77341 10.1182 4.71987 10.2185 4.69822 10.3276C4.67657 10.4368 4.68777 10.5499 4.73041 10.6527ZM12 4.48273L17.3923 9.875H15.375C15.2258 9.875 15.0828 9.93426 14.9773 10.0398C14.8718 10.1452 14.8125 10.2883 14.8125 10.4375V16.625H9.18752L9.18752 10.4375C9.18752 10.2883 9.12825 10.1452 9.02276 10.0398C8.91727 9.93426 8.7742 9.875 8.62502 9.875L6.60775 9.875L12 4.48273Z" fill="#FAFAFA"/>
<path d="M6.34585 9.72984C6.37895 9.80979 6.43501 9.87813 6.50695 9.92622C6.57888 9.97431 6.66346 9.99998 6.74999 10L8.93749 10V14.375C8.93749 14.6071 9.02968 14.8296 9.19377 14.9937C9.35787 15.1578 9.58043 15.25 9.81249 15.25L14.1875 15.25C14.4196 15.25 14.6421 15.1578 14.8062 14.9937C14.9703 14.8296 15.0625 14.6071 15.0625 14.375V10H17.25C17.3366 10.0001 17.4212 9.97445 17.4932 9.92638C17.5652 9.87831 17.6214 9.80996 17.6545 9.72997C17.6877 9.64999 17.6963 9.56197 17.6794 9.47705C17.6625 9.39214 17.6208 9.31416 17.5595 9.25297L12.3095 4.00297C12.2689 3.96229 12.2206 3.93002 12.1675 3.90801C12.1144 3.88599 12.0575 3.87466 12 3.87466C11.9425 3.87466 11.8856 3.88599 11.8325 3.90801C11.7793 3.93002 11.7311 3.96229 11.6905 4.00297L6.44046 9.25297C6.37929 9.31419 6.33766 9.39217 6.32082 9.47706C6.30398 9.56194 6.31269 9.64991 6.34585 9.72984ZM12 4.93102L16.194 9.125H14.625C14.509 9.125 14.3977 9.17109 14.3156 9.25314C14.2336 9.33519 14.1875 9.44647 14.1875 9.5625V14.375L9.81249 14.375V9.5625C9.81249 9.44647 9.7664 9.33519 9.68435 9.25314C9.6023 9.17109 9.49102 9.125 9.37499 9.125H7.80601L12 4.93102Z" fill="#FAFAFA"/>
<path d="M7.1536 9.76844C7.18197 9.83696 7.23002 9.89554 7.29168 9.93676C7.35334 9.97798 7.42584 9.99998 7.50001 10H9.37501V13.75C9.37501 13.9489 9.45403 14.1397 9.59468 14.2803C9.73533 14.421 9.9261 14.5 10.125 14.5H13.875C14.0739 14.5 14.2647 14.421 14.4053 14.2803C14.546 14.1397 14.625 13.9489 14.625 13.75V10H16.5C16.5742 10.0001 16.6468 9.9781 16.7085 9.9369C16.7702 9.89569 16.8183 9.8371 16.8467 9.76855C16.8752 9.69999 16.8826 9.62454 16.8681 9.55176C16.8536 9.47898 16.8178 9.41213 16.7653 9.35969L12.2653 4.85969C12.2305 4.82482 12.1891 4.79716 12.1436 4.77829C12.0981 4.75942 12.0493 4.74971 12 4.74971C11.9507 4.74971 11.9019 4.75942 11.8564 4.77829C11.8109 4.79716 11.7695 4.82482 11.7347 4.85969L7.2347 9.35969C7.18227 9.41216 7.14658 9.479 7.13215 9.55176C7.11771 9.62452 7.12518 9.69992 7.1536 9.76844ZM12 5.65516L15.5949 9.25H14.25C14.1506 9.25 14.0552 9.28951 13.9848 9.35983C13.9145 9.43016 13.875 9.52554 13.875 9.625V13.75H10.125V9.625C10.125 9.52554 10.0855 9.43016 10.0152 9.35983C9.94485 9.28951 9.84947 9.25 9.75001 9.25H8.40517L12 5.65516Z" fill="#FAFAFA"/>
<path d="M7.96133 9.80703C7.98497 9.86414 8.02501 9.91295 8.07639 9.9473C8.12778 9.98165 8.18819 9.99999 8.25 10H9.8125V13.125C9.8125 13.2908 9.87835 13.4497 9.99556 13.5669C10.1128 13.6842 10.2717 13.75 10.4375 13.75H13.5625C13.7283 13.75 13.8872 13.6842 14.0044 13.5669C14.1216 13.4497 14.1875 13.2908 14.1875 13.125V10H15.75C15.8118 10 15.8723 9.98175 15.9237 9.94741C15.9752 9.91308 16.0153 9.86425 16.0389 9.80712C16.0626 9.74999 16.0688 9.68712 16.0567 9.62647C16.0446 9.56581 16.0148 9.51011 15.9711 9.46641L12.2211 5.71641C12.1921 5.68735 12.1576 5.6643 12.1197 5.64857C12.0817 5.63285 12.0411 5.62475 12 5.62475C11.9589 5.62475 11.9183 5.63285 11.8803 5.64857C11.8424 5.6643 11.8079 5.68735 11.7789 5.71641L8.0289 9.46641C7.98521 9.51013 7.95547 9.56584 7.94345 9.62647C7.93142 9.6871 7.93764 9.74994 7.96133 9.80703ZM12 6.3793L14.9957 9.375H13.875C13.7921 9.375 13.7126 9.40792 13.654 9.46653C13.5954 9.52513 13.5625 9.60462 13.5625 9.6875V13.125H10.4375V9.6875C10.4375 9.60462 10.4046 9.52513 10.346 9.46653C10.2874 9.40792 10.2079 9.375 10.125 9.375H9.00429L12 6.3793Z" fill="#FAFAFA"/>
<mask id="path-6-inside-1_16_108" fill="white">
<path d="M7.96133 10.307C7.98497 10.3641 8.02501 10.413 8.07639 10.4473C8.12778 10.4816 8.18819 10.5 8.25 10.5H9.8125V13.625C9.8125 13.7908 9.87835 13.9497 9.99556 14.0669C10.1128 14.1842 10.2717 14.25 10.4375 14.25H13.5625C13.7283 14.25 13.8872 14.1842 14.0044 14.0669C14.1216 13.9497 14.1875 13.7908 14.1875 13.625V10.5H15.75C15.8118 10.5 15.8723 10.4817 15.9237 10.4474C15.9752 10.4131 16.0153 10.3643 16.0389 10.3071C16.0626 10.25 16.0688 10.1871 16.0567 10.1265C16.0446 10.0658 16.0148 10.0101 15.9711 9.96641L12.2211 6.21641C12.1921 6.18735 12.1576 6.1643 12.1197 6.14857C12.0817 6.13285 12.0411 6.12475 12 6.12475C11.9589 6.12475 11.9183 6.13285 11.8803 6.14857C11.8424 6.1643 11.8079 6.18735 11.7789 6.21641L8.0289 9.96641C7.98521 10.0101 7.95547 10.0658 7.94345 10.1265C7.93142 10.1871 7.93764 10.2499 7.96133 10.307ZM12 6.8793L14.9957 9.875H13.875C13.7921 9.875 13.7126 9.90792 13.654 9.96653C13.5954 10.0251 13.5625 10.1046 13.5625 10.1875V13.625H10.4375V10.1875C10.4375 10.1046 10.4046 10.0251 10.346 9.96653C10.2874 9.90792 10.2079 9.875 10.125 9.875H9.00429L12 6.8793Z"/>
</mask>
<path d="M7.96133 10.307C7.98497 10.3641 8.02501 10.413 8.07639 10.4473C8.12778 10.4816 8.18819 10.5 8.25 10.5H9.8125V13.625C9.8125 13.7908 9.87835 13.9497 9.99556 14.0669C10.1128 14.1842 10.2717 14.25 10.4375 14.25H13.5625C13.7283 14.25 13.8872 14.1842 14.0044 14.0669C14.1216 13.9497 14.1875 13.7908 14.1875 13.625V10.5H15.75C15.8118 10.5 15.8723 10.4817 15.9237 10.4474C15.9752 10.4131 16.0153 10.3643 16.0389 10.3071C16.0626 10.25 16.0688 10.1871 16.0567 10.1265C16.0446 10.0658 16.0148 10.0101 15.9711 9.96641L12.2211 6.21641C12.1921 6.18735 12.1576 6.1643 12.1197 6.14857C12.0817 6.13285 12.0411 6.12475 12 6.12475C11.9589 6.12475 11.9183 6.13285 11.8803 6.14857C11.8424 6.1643 11.8079 6.18735 11.7789 6.21641L8.0289 9.96641C7.98521 10.0101 7.95547 10.0658 7.94345 10.1265C7.93142 10.1871 7.93764 10.2499 7.96133 10.307ZM12 6.8793L14.9957 9.875H13.875C13.7921 9.875 13.7126 9.90792 13.654 9.96653C13.5954 10.0251 13.5625 10.1046 13.5625 10.1875V13.625H10.4375V10.1875C10.4375 10.1046 10.4046 10.0251 10.346 9.96653C10.2874 9.90792 10.2079 9.875 10.125 9.875H9.00429L12 6.8793Z" fill="#FAFAFA"/>
<path d="M7.96133 10.307L10.7332 9.15953L10.7323 9.15743L7.96133 10.307ZM8.25 10.5L8.24938 13.5H8.25V10.5ZM9.8125 10.5H12.8125V7.5L9.8125 7.5V10.5ZM10.4375 14.25V17.25V14.25ZM13.5625 14.25L13.5625 17.25L13.5625 14.25ZM14.1875 10.5V7.5L11.1875 7.5V10.5H14.1875ZM15.75 10.5L15.7524 7.5H15.75V10.5ZM15.9711 9.96641L13.8498 12.0877L13.851 12.0889L15.9711 9.96641ZM12.2211 6.21641L10.0986 8.33655L10.0998 8.33773L12.2211 6.21641ZM11.7789 6.21641L13.9002 8.33773L13.9014 8.33655L11.7789 6.21641ZM8.0289 9.96641L5.90758 7.84509L5.90666 7.84601L8.0289 9.96641ZM12 6.8793L14.1213 4.75798L12 2.63666L9.87868 4.75798L12 6.8793ZM14.9957 9.875V12.875H22.2383L17.117 7.75368L14.9957 9.875ZM13.5625 13.625V16.625H16.5625V13.625H13.5625ZM10.4375 13.625L7.4375 13.625V16.625H10.4375V13.625ZM9.00429 9.875L6.88297 7.75368L1.76165 12.875L9.00429 12.875V9.875ZM5.18946 11.4545C5.44005 12.0599 5.86451 12.5773 6.40918 12.9414L9.74361 7.95323C10.1855 8.24862 10.5299 8.66842 10.7332 9.15953L5.18946 11.4545ZM6.40918 12.9414C6.95384 13.3055 7.59424 13.4999 8.24938 13.5L8.25061 7.5C8.78214 7.50011 9.30171 7.65783 9.74361 7.95323L6.40918 12.9414ZM8.25 13.5L9.8125 13.5V7.5H8.25V13.5ZM6.8125 10.5V13.625L12.8125 13.625V10.5L6.8125 10.5ZM6.8125 13.625C6.8125 14.5864 7.19442 15.5084 7.87424 16.1883L12.1169 11.9456C12.5623 12.391 12.8125 12.9951 12.8125 13.625L6.8125 13.625ZM7.87424 16.1883C8.55406 16.8681 9.47609 17.25 10.4375 17.25L10.4375 11.25C11.0674 11.25 11.6715 11.5002 12.1169 11.9456L7.87424 16.1883ZM10.4375 17.25H13.5625V11.25H10.4375V17.25ZM13.5625 17.25C14.5239 17.25 15.4459 16.8681 16.1258 16.1883L11.8831 11.9456C12.3285 11.5002 12.9326 11.25 13.5625 11.25L13.5625 17.25ZM16.1258 16.1883C16.8056 15.5084 17.1875 14.5864 17.1875 13.625H11.1875C11.1875 12.9951 11.4377 12.391 11.8831 11.9456L16.1258 16.1883ZM17.1875 13.625V10.5H11.1875V13.625H17.1875ZM14.1875 13.5H15.75V7.5H14.1875V13.5ZM15.7476 13.5C16.4032 13.5005 17.0441 13.3065 17.5893 12.9426L14.2582 7.95225C14.7005 7.65697 15.2205 7.49958 15.7524 7.5L15.7476 13.5ZM17.5893 12.9426C18.1345 12.5786 18.5595 12.0611 18.8104 11.4555L13.2674 9.15875C13.471 8.66742 13.8158 8.24753 14.2582 7.95225L17.5893 12.9426ZM18.8104 11.4555C19.0614 10.8499 19.127 10.1835 18.999 9.54055L13.1145 10.7124C13.0106 10.1908 13.0639 9.65009 13.2674 9.15875L18.8104 11.4555ZM18.999 9.54055C18.8709 8.89764 18.555 8.30718 18.0912 7.8439L13.851 12.0889C13.4747 11.713 13.2184 11.234 13.1145 10.7124L18.999 9.54055ZM18.0924 7.84509L14.3424 4.09509L10.0998 8.33773L13.8498 12.0877L18.0924 7.84509ZM14.3436 4.09627C14.036 3.78828 13.6706 3.54395 13.2685 3.37725L10.9708 8.91989C10.6446 8.78465 10.3482 8.58642 10.0986 8.33655L14.3436 4.09627ZM13.2685 3.37725C12.8663 3.21055 12.4353 3.12475 12 3.12475L12 9.12475C11.6468 9.12475 11.2971 9.05515 10.9708 8.91989L13.2685 3.37725ZM12 3.12475C11.5647 3.12475 11.1337 3.21055 10.7315 3.37725L13.0292 8.91989C12.7029 9.05515 12.3532 9.12475 12 9.12475L12 3.12475ZM10.7315 3.37725C10.3294 3.54395 9.96405 3.78828 9.6564 4.09627L13.9014 8.33655C13.6518 8.58642 13.3554 8.78465 13.0292 8.91989L10.7315 3.37725ZM9.65758 4.09509L5.90758 7.84509L10.1502 12.0877L13.9002 8.33773L9.65758 4.09509ZM5.90666 7.84601C5.44355 8.30952 5.12831 8.89997 5.0008 9.54266L10.8861 10.7103C10.7826 11.2317 10.5269 11.7107 10.1511 12.0868L5.90666 7.84601ZM5.0008 9.54266C4.87329 10.1854 4.93925 10.8514 5.19033 11.4566L10.7323 9.15743C10.936 9.64843 10.9895 10.1888 10.8861 10.7103L5.0008 9.54266ZM9.87868 9.00062L12.8744 11.9963L17.117 7.75368L14.1213 4.75798L9.87868 9.00062ZM14.9957 6.875H13.875V12.875H14.9957V6.875ZM13.875 6.875C12.9965 6.875 12.1539 7.22399 11.5327 7.84521L15.7753 12.0878C15.2713 12.5919 14.5878 12.875 13.875 12.875V6.875ZM11.5327 7.84521C10.9115 8.46642 10.5625 9.30897 10.5625 10.1875H16.5625C16.5625 10.9003 16.2794 11.5838 15.7753 12.0878L11.5327 7.84521ZM10.5625 10.1875V13.625H16.5625V10.1875H10.5625ZM13.5625 10.625H10.4375V16.625H13.5625V10.625ZM13.4375 13.625V10.1875H7.4375V13.625L13.4375 13.625ZM13.4375 10.1875C13.4375 9.30898 13.0885 8.46643 12.4673 7.84521L8.22465 12.0878C7.72064 11.5838 7.4375 10.9003 7.4375 10.1875H13.4375ZM12.4673 7.84521C11.8461 7.22399 11.0035 6.875 10.125 6.875V12.875C9.41224 12.875 8.72866 12.5919 8.22465 12.0878L12.4673 7.84521ZM10.125 6.875H9.00429V12.875H10.125V6.875ZM11.1256 11.9963L14.1213 9.00062L9.87868 4.75798L6.88297 7.75368L11.1256 11.9963Z" fill="#FAFAFA" mask="url(#path-6-inside-1_16_108)"/>
<rect x="8" y="6" width="8" height="14" fill="#FAFAFA"/>
</svg>
