<svg width="24" height="24" viewBox="0 0 24 24" fill="none" xmlns="http://www.w3.org/2000/svg">
<path d="M21.6928 12.4631C21.6361 12.3261 21.54 12.2089 21.4167 12.1265C21.2933 12.044 21.1483 12 21 12L17.25 12V4.5C17.25 4.10218 17.092 3.72064 16.8107 3.43934C16.5294 3.15804 16.1478 3 15.75 3L8.25001 3C7.85219 3 7.47066 3.15804 7.18935 3.43934C6.90805 3.72064 6.75001 4.10218 6.75001 4.5L6.75001 12L3.00001 12C2.85159 11.9999 2.70647 12.0438 2.58302 12.1262C2.45958 12.2086 2.36336 12.3258 2.30654 12.4629C2.24973 12.6 2.23488 12.7509 2.26386 12.8965C2.29285 13.042 2.36438 13.1757 2.46939 13.2806L11.4694 22.2806C11.539 22.3504 11.6218 22.4057 11.7128 22.4434C11.8039 22.4812 11.9015 22.5006 12 22.5006C12.0986 22.5006 12.1962 22.4812 12.2872 22.4434C12.3783 22.4057 12.461 22.3504 12.5306 22.2806L21.5306 13.2806C21.6355 13.1757 21.7069 13.042 21.7357 12.8965C21.7646 12.751 21.7497 12.6002 21.6928 12.4631ZM12 20.6897L4.81032 13.5L7.50001 13.5C7.69892 13.5 7.88969 13.421 8.03034 13.2803C8.17099 13.1397 8.25001 12.9489 8.25001 12.75L8.25001 4.5L15.75 4.5L15.75 12.75C15.75 12.9489 15.829 13.1397 15.9697 13.2803C16.1103 13.421 16.3011 13.5 16.5 13.5H19.1897L12 20.6897Z" fill="#676767"/>
<path d="M19.2696 13.3473C19.227 13.2446 19.155 13.1567 19.0625 13.0949C18.97 13.033 18.8612 13 18.75 13H15.9375L15.9375 7.375C15.9375 7.07663 15.819 6.79048 15.608 6.5795C15.397 6.36853 15.1109 6.25 14.8125 6.25L9.18748 6.25C8.88912 6.25 8.60297 6.36853 8.39199 6.5795C8.18101 6.79048 8.06248 7.07663 8.06248 7.375L8.06248 13H5.24999C5.13867 12.9999 5.02983 13.0329 4.93725 13.0947C4.84466 13.1565 4.7725 13.2443 4.72989 13.3472C4.68727 13.45 4.67613 13.5632 4.69788 13.6724C4.71962 13.7815 4.77326 13.8818 4.85202 13.9605L11.602 20.7105C11.6543 20.7628 11.7163 20.8043 11.7846 20.8326C11.8529 20.8609 11.9261 20.8754 12 20.8754C12.0739 20.8754 12.1471 20.8609 12.2154 20.8326C12.2837 20.8043 12.3457 20.7628 12.398 20.7105L19.148 13.9605C19.2266 13.8818 19.2801 13.7815 19.3018 13.6724C19.3234 13.5632 19.3122 13.4501 19.2696 13.3473ZM12 19.5173L6.60772 14.125H8.62498C8.77417 14.125 8.91724 14.0657 9.02273 13.9602C9.12822 13.8548 9.18748 13.7117 9.18748 13.5625L9.18748 7.375L14.8125 7.375L14.8125 13.5625C14.8125 13.7117 14.8717 13.8548 14.9772 13.9602C15.0827 14.0657 15.2258 14.125 15.375 14.125H17.3922L12 19.5173Z" fill="#676767"/>
<path d="M17.6541 14.2702C17.6211 14.1902 17.565 14.1219 17.4931 14.0738C17.4211 14.0257 17.3365 14 17.25 14L15.0625 14L15.0625 9.625C15.0625 9.39294 14.9703 9.17038 14.8062 9.00628C14.6421 8.84219 14.4196 8.75 14.1875 8.75L9.81251 8.75C9.58044 8.75 9.35788 8.84219 9.19379 9.00628C9.0297 9.17038 8.93751 9.39294 8.93751 9.625L8.93751 14H6.75001C6.66343 13.9999 6.57878 14.0256 6.50677 14.0736C6.43476 14.1217 6.37863 14.19 6.34549 14.27C6.31234 14.35 6.30368 14.438 6.32059 14.5229C6.3375 14.6079 6.37922 14.6858 6.44048 14.747L11.6905 19.997C11.7311 20.0377 11.7794 20.07 11.8325 20.092C11.8856 20.114 11.9425 20.1253 12 20.1253C12.0575 20.1253 12.1144 20.114 12.1675 20.092C12.2207 20.07 12.2689 20.0377 12.3095 19.997L17.5595 14.747C17.6207 14.6858 17.6623 14.6078 17.6792 14.5229C17.696 14.4381 17.6873 14.3501 17.6541 14.2702ZM12 19.069L7.80602 14.875H9.37501C9.49104 14.875 9.60232 14.8289 9.68437 14.7469C9.76642 14.6648 9.81251 14.5535 9.81251 14.4375L9.81251 9.625L14.1875 9.625L14.1875 14.4375C14.1875 14.5535 14.2336 14.6648 14.3156 14.7469C14.3977 14.8289 14.509 14.875 14.625 14.875L16.194 14.875L12 19.069Z" fill="#676767"/>
<path d="M16.8464 14.2316C16.818 14.163 16.77 14.1045 16.7083 14.0632C16.6467 14.022 16.5742 14 16.5 14L14.625 14V10.25C14.625 10.0511 14.546 9.86032 14.4053 9.71967C14.2647 9.57902 14.0739 9.5 13.875 9.5L10.125 9.5C9.92608 9.5 9.73531 9.57902 9.59466 9.71967C9.45401 9.86032 9.37499 10.0511 9.37499 10.25V14H7.49999C7.42578 13.9999 7.35322 14.0219 7.2915 14.0631C7.22977 14.1043 7.18166 14.1629 7.15326 14.2315C7.12485 14.3 7.11742 14.3755 7.13192 14.4482C7.14641 14.521 7.18217 14.5879 7.23468 14.6403L11.7347 19.1403C11.7695 19.1752 11.8109 19.2028 11.8564 19.2217C11.9019 19.2406 11.9507 19.2503 12 19.2503C12.0493 19.2503 12.0981 19.2406 12.1436 19.2217C12.1891 19.2028 12.2305 19.1752 12.2653 19.1403L16.7653 14.6403C16.8177 14.5878 16.8534 14.521 16.8679 14.4482C16.8823 14.3755 16.8748 14.3001 16.8464 14.2316ZM12 18.3448L8.40515 14.75H9.74999C9.84945 14.75 9.94483 14.7105 10.0152 14.6402C10.0855 14.5698 10.125 14.4745 10.125 14.375L10.125 10.25L13.875 10.25V14.375C13.875 14.4745 13.9145 14.5698 13.9848 14.6402C14.0552 14.7105 14.1505 14.75 14.25 14.75H15.5948L12 18.3448Z" fill="#676767"/>
<path d="M16.0387 14.193C16.015 14.1359 15.975 14.087 15.9236 14.0527C15.8722 14.0184 15.8118 14 15.75 14H14.1875V10.875C14.1875 10.7092 14.1217 10.5503 14.0044 10.4331C13.8872 10.3158 13.7283 10.25 13.5625 10.25L10.4375 10.25C10.2717 10.25 10.1128 10.3158 9.99556 10.4331C9.87835 10.5503 9.8125 10.7092 9.8125 10.875V14H8.25C8.18816 14 8.12769 14.0183 8.07626 14.0526C8.02482 14.0869 7.98473 14.1357 7.96106 14.1929C7.93738 14.25 7.9312 14.3129 7.94327 14.3735C7.95535 14.4342 7.98515 14.4899 8.02891 14.5336L11.7789 18.2836C11.8079 18.3126 11.8424 18.3357 11.8803 18.3514C11.9183 18.3672 11.9589 18.3752 12 18.3752C12.0411 18.3752 12.0817 18.3672 12.1197 18.3514C12.1576 18.3357 12.1921 18.3126 12.2211 18.2836L15.9711 14.5336C16.0148 14.4899 16.0445 14.4342 16.0566 14.3735C16.0686 14.3129 16.0624 14.2501 16.0387 14.193ZM12 17.6207L9.0043 14.625H10.125C10.2079 14.625 10.2874 14.5921 10.346 14.5335C10.4046 14.4749 10.4375 14.3954 10.4375 14.3125V10.875L13.5625 10.875V14.3125C13.5625 14.3954 13.5954 14.4749 13.654 14.5335C13.7126 14.5921 13.7921 14.625 13.875 14.625H14.9957L12 17.6207Z" fill="#676767"/>
<mask id="path-6-inside-1_16_108" fill="white">
<path d="M16.0387 13.693C16.015 13.6359 15.975 13.587 15.9236 13.5527C15.8722 13.5184 15.8118 13.5 15.75 13.5H14.1875V10.375C14.1875 10.2092 14.1217 10.0503 14.0044 9.93306C13.8872 9.81585 13.7283 9.75 13.5625 9.75L10.4375 9.75C10.2717 9.75 10.1128 9.81585 9.99556 9.93306C9.87835 10.0503 9.8125 10.2092 9.8125 10.375V13.5H8.25C8.18816 13.5 8.12769 13.5183 8.07626 13.5526C8.02482 13.5869 7.98473 13.6357 7.96106 13.6929C7.93738 13.75 7.9312 13.8129 7.94327 13.8735C7.95535 13.9342 7.98515 13.9899 8.02891 14.0336L11.7789 17.7836C11.8079 17.8126 11.8424 17.8357 11.8803 17.8514C11.9183 17.8672 11.9589 17.8752 12 17.8752C12.0411 17.8752 12.0817 17.8672 12.1197 17.8514C12.1576 17.8357 12.1921 17.8126 12.2211 17.7836L15.9711 14.0336C16.0148 13.9899 16.0445 13.9342 16.0566 13.8735C16.0686 13.8129 16.0624 13.7501 16.0387 13.693ZM12 17.1207L9.0043 14.125H10.125C10.2079 14.125 10.2874 14.0921 10.346 14.0335C10.4046 13.9749 10.4375 13.8954 10.4375 13.8125V10.375L13.5625 10.375V13.8125C13.5625 13.8954 13.5954 13.9749 13.654 14.0335C13.7126 14.0921 13.7921 14.125 13.875 14.125H14.9957L12 17.1207Z"/>
</mask>
<path d="M16.0387 13.693C16.015 13.6359 15.975 13.587 15.9236 13.5527C15.8722 13.5184 15.8118 13.5 15.75 13.5H14.1875V10.375C14.1875 10.2092 14.1217 10.0503 14.0044 9.93306C13.8872 9.81585 13.7283 9.75 13.5625 9.75L10.4375 9.75C10.2717 9.75 10.1128 9.81585 9.99556 9.93306C9.87835 10.0503 9.8125 10.2092 9.8125 10.375V13.5H8.25C8.18816 13.5 8.12769 13.5183 8.07626 13.5526C8.02482 13.5869 7.98473 13.6357 7.96106 13.6929C7.93738 13.75 7.9312 13.8129 7.94327 13.8735C7.95535 13.9342 7.98515 13.9899 8.02891 14.0336L11.7789 17.7836C11.8079 17.8126 11.8424 17.8357 11.8803 17.8514C11.9183 17.8672 11.9589 17.8752 12 17.8752C12.0411 17.8752 12.0817 17.8672 12.1197 17.8514C12.1576 17.8357 12.1921 17.8126 12.2211 17.7836L15.9711 14.0336C16.0148 13.9899 16.0445 13.9342 16.0566 13.8735C16.0686 13.8129 16.0624 13.7501 16.0387 13.693ZM12 17.1207L9.0043 14.125H10.125C10.2079 14.125 10.2874 14.0921 10.346 14.0335C10.4046 13.9749 10.4375 13.8954 10.4375 13.8125V10.375L13.5625 10.375V13.8125C13.5625 13.8954 13.5954 13.9749 13.654 14.0335C13.7126 14.0921 13.7921 14.125 13.875 14.125H14.9957L12 17.1207Z" fill="#676767"/>
<path d="M16.0387 13.693L13.2668 14.8405L13.2677 14.8426L16.0387 13.693ZM15.75 13.5L15.7506 10.5H15.75V13.5ZM14.1875 13.5L11.1875 13.5L11.1875 16.5H14.1875L14.1875 13.5ZM13.5625 9.75V6.75V9.75ZM10.4375 9.75L10.4375 6.75L10.4375 9.75ZM9.8125 13.5L9.8125 16.5H12.8125L12.8125 13.5L9.8125 13.5ZM8.25 13.5L8.24764 16.5H8.25V13.5ZM8.02891 14.0336L10.1502 11.9123L10.149 11.9111L8.02891 14.0336ZM11.7789 17.7836L13.9014 15.6635L13.9002 15.6623L11.7789 17.7836ZM12.2211 17.7836L10.0998 15.6623L10.0986 15.6635L12.2211 17.7836ZM15.9711 14.0336L18.0924 16.1549L18.0933 16.154L15.9711 14.0336ZM12 17.1207L9.87868 19.242L12 21.3633L14.1213 19.242L12 17.1207ZM9.0043 14.125L9.0043 11.125L1.76166 11.125L6.88298 16.2463L9.0043 14.125ZM10.4375 10.375V7.375H7.4375L7.4375 10.375H10.4375ZM13.5625 10.375H16.5625V7.375H13.5625V10.375ZM14.9957 14.125L17.117 16.2463L22.2383 11.125L14.9957 11.125V14.125ZM18.8105 12.5455C18.5599 11.9401 18.1355 11.4227 17.5908 11.0586L14.2564 16.0468C13.8145 15.7514 13.4701 15.3316 13.2668 14.8405L18.8105 12.5455ZM17.5908 11.0586C17.0462 10.6945 16.4058 10.5001 15.7506 10.5L15.7494 16.5C15.2179 16.4999 14.6983 16.3422 14.2564 16.0468L17.5908 11.0586ZM15.75 10.5H14.1875L14.1875 16.5H15.75L15.75 10.5ZM17.1875 13.5V10.375L11.1875 10.375V13.5L17.1875 13.5ZM17.1875 10.375C17.1875 9.41359 16.8056 8.49156 16.1258 7.81174L11.8831 12.0544C11.4377 11.609 11.1875 11.0049 11.1875 10.375L17.1875 10.375ZM16.1258 7.81174C15.4459 7.13192 14.5239 6.75 13.5625 6.75L13.5625 12.75C12.9326 12.75 12.3285 12.4998 11.8831 12.0544L16.1258 7.81174ZM13.5625 6.75L10.4375 6.75V12.75L13.5625 12.75V6.75ZM10.4375 6.75C9.47609 6.75 8.55406 7.13192 7.87424 7.81174L12.1169 12.0544C11.6715 12.4998 11.0674 12.75 10.4375 12.75L10.4375 6.75ZM7.87424 7.81174C7.19442 8.49156 6.8125 9.41359 6.8125 10.375L12.8125 10.375C12.8125 11.0049 12.5623 11.609 12.1169 12.0544L7.87424 7.81174ZM6.8125 10.375L6.8125 13.5L12.8125 13.5V10.375L6.8125 10.375ZM9.8125 10.5H8.25L8.25 16.5H9.8125L9.8125 10.5ZM8.25236 10.5C7.59683 10.4995 6.95589 10.6935 6.41067 11.0574L9.74184 16.0477C9.2995 16.343 8.77949 16.5004 8.24764 16.5L8.25236 10.5ZM6.41067 11.0574C5.86545 11.4214 5.44048 11.9389 5.18955 12.5445L10.7326 14.8412C10.529 15.3326 10.1842 15.7525 9.74184 16.0477L6.41067 11.0574ZM5.18955 12.5445C4.93862 13.1501 4.87302 13.8165 5.00105 14.4595L10.8855 13.2876C10.9894 13.8092 10.9361 14.3499 10.7326 14.8412L5.18955 12.5445ZM5.00105 14.4595C5.12908 15.1024 5.44498 15.6928 5.90877 16.1561L10.149 11.9111C10.5253 12.287 10.7816 12.766 10.8855 13.2876L5.00105 14.4595ZM5.90759 16.1549L9.65759 19.9049L13.9002 15.6623L10.1502 11.9123L5.90759 16.1549ZM9.65641 19.9037C9.96405 20.2117 10.3294 20.456 10.7315 20.6227L13.0292 15.0801C13.3554 15.2154 13.6518 15.4136 13.9014 15.6635L9.65641 19.9037ZM10.7315 20.6227C11.1337 20.7895 11.5647 20.8752 12 20.8752L12 14.8752C12.3532 14.8752 12.7029 14.9449 13.0292 15.0801L10.7315 20.6227ZM12 20.8752C12.4353 20.8752 12.8663 20.7895 13.2685 20.6227L10.9708 15.0801C11.2971 14.9449 11.6468 14.8752 12 14.8752L12 20.8752ZM13.2685 20.6227C13.6706 20.456 14.036 20.2117 14.3436 19.9037L10.0986 15.6635C10.3482 15.4136 10.6446 15.2154 10.9708 15.0801L13.2685 20.6227ZM14.3424 19.9049L18.0924 16.1549L13.8498 11.9123L10.0998 15.6623L14.3424 19.9049ZM18.0933 16.154C18.5564 15.6905 18.8717 15.1 18.9992 14.4573L13.1139 13.2897C13.2174 12.7683 13.4731 12.2893 13.8489 11.9132L18.0933 16.154ZM18.9992 14.4573C19.1267 13.8146 19.0607 13.1486 18.8097 12.5434L13.2677 14.8426C13.064 14.3516 13.0105 13.8112 13.1139 13.2897L18.9992 14.4573ZM14.1213 14.9994L11.1256 12.0037L6.88298 16.2463L9.87868 19.242L14.1213 14.9994ZM9.0043 17.125H10.125L10.125 11.125H9.0043L9.0043 17.125ZM10.125 17.125C11.0035 17.125 11.8461 16.776 12.4673 16.1548L8.22465 11.9122C8.72866 11.4081 9.41224 11.125 10.125 11.125L10.125 17.125ZM12.4673 16.1548C13.0885 15.5336 13.4375 14.691 13.4375 13.8125L7.4375 13.8125C7.4375 13.0997 7.72065 12.4162 8.22465 11.9122L12.4673 16.1548ZM13.4375 13.8125V10.375L7.4375 10.375L7.4375 13.8125L13.4375 13.8125ZM10.4375 13.375L13.5625 13.375V7.375L10.4375 7.375V13.375ZM10.5625 10.375V13.8125L16.5625 13.8125V10.375L10.5625 10.375ZM10.5625 13.8125C10.5625 14.691 10.9115 15.5336 11.5327 16.1548L15.7754 11.9122C16.2794 12.4162 16.5625 13.0997 16.5625 13.8125L10.5625 13.8125ZM11.5327 16.1548C12.1539 16.776 12.9965 17.125 13.875 17.125L13.875 11.125C14.5878 11.125 15.2713 11.4081 15.7754 11.9122L11.5327 16.1548ZM13.875 17.125H14.9957L14.9957 11.125H13.875L13.875 17.125ZM12.8744 12.0037L9.87868 14.9994L14.1213 19.242L17.117 16.2463L12.8744 12.0037Z" fill="#676767" mask="url(#path-6-inside-1_16_108)"/>
<rect x="16" y="18" width="8" height="14" transform="rotate(-180 16 18)" fill="#676767"/>
</svg>
