<svg width="24" height="24" viewBox="0 0 24 24" fill="none" xmlns="http://www.w3.org/2000/svg">
<path d="M2.30718 11.5369C2.36391 11.6739 2.46002 11.7911 2.58334 11.8735C2.70666 11.956 2.85165 12 2.99999 12H6.74999L6.74999 19.5C6.74999 19.8978 6.90802 20.2794 7.18933 20.5607C7.47063 20.842 7.85216 21 8.24999 21H15.75C16.1478 21 16.5293 20.842 16.8106 20.5607C17.092 20.2794 17.25 19.8978 17.25 19.5V12H21C21.1484 12.0001 21.2935 11.9562 21.417 11.8738C21.5404 11.7914 21.6366 11.6742 21.6935 11.5371C21.7503 11.4 21.7651 11.2491 21.7361 11.1035C21.7071 10.958 21.6356 10.8243 21.5306 10.7194L12.5306 1.71937C12.461 1.64964 12.3782 1.59432 12.2872 1.55658C12.1961 1.51884 12.0985 1.49941 12 1.49941C11.9014 1.49941 11.8038 1.51884 11.7128 1.55658C11.6217 1.59432 11.539 1.64964 11.4694 1.71937L2.46936 10.7194C2.36451 10.8243 2.29313 10.958 2.26426 11.1035C2.23539 11.249 2.25033 11.3998 2.30718 11.5369ZM12 3.31031L19.1897 10.5H16.5C16.3011 10.5 16.1103 10.579 15.9697 10.7197C15.829 10.8603 15.75 11.0511 15.75 11.25V19.5H8.24999L8.24999 11.25C8.24999 11.0511 8.17097 10.8603 8.03032 10.7197C7.88967 10.579 7.6989 10.5 7.49999 10.5H4.8103L12 3.31031Z" fill="#838383"/>
</svg>
