<svg width="12" height="12" viewBox="0 0 12 12" fill="none" xmlns="http://www.w3.org/2000/svg">
<path d="M10.125 2.25H1.87501C1.6761 2.25 1.48534 2.32902 1.34468 2.46967C1.20403 2.61032 1.12501 2.80109 1.12501 3V10.5C1.12415 10.643 1.16461 10.7832 1.24153 10.9038C1.31844 11.0244 1.42855 11.1202 1.55861 11.1797C1.65771 11.2258 1.76569 11.2498 1.87501 11.25C2.05108 11.2496 2.2213 11.1868 2.35548 11.0728C2.35772 11.0714 2.35977 11.0696 2.36158 11.0677L3.8672 9.75H10.125C10.3239 9.75 10.5147 9.67098 10.6553 9.53033C10.796 9.38968 10.875 9.19891 10.875 9V3C10.875 2.80109 10.796 2.61032 10.6553 2.46967C10.5147 2.32902 10.3239 2.25 10.125 2.25ZM10.125 9H3.8672C3.69059 8.99992 3.51961 9.06217 3.38439 9.17578L3.37876 9.18094L1.87501 10.5V3H10.125V9Z" fill="#AEAEAE"/>
</svg>
