<svg width="37" height="36" viewBox="0 0 37 36" fill="none" xmlns="http://www.w3.org/2000/svg">
<path d="M18.091 36C28.0824 36 36.1821 27.9411 36.1821 18C36.1821 8.05888 28.0824 0 18.091 0C8.09963 0 0 8.05888 0 18C0 27.9411 8.09963 36 18.091 36Z" fill="black"/>
<path d="M30.1562 18.0001C30.1022 16.5504 28.8791 15.4184 27.4176 15.4677C26.77 15.49 26.154 15.754 25.6863 16.197C23.6267 14.801 21.2074 14.0359 18.7206 13.9822L19.8943 8.36699L23.7661 9.17684C23.874 10.1656 24.7644 10.8815 25.7582 10.7742C26.752 10.6668 27.4716 9.78086 27.3636 8.79205C27.2557 7.80323 26.3653 7.08735 25.3715 7.19473C24.8004 7.2529 24.2877 7.58399 24.0044 8.07616L19.5705 7.19473C19.2692 7.12762 18.9679 7.31554 18.9005 7.61979C18.9005 7.62426 18.9005 7.62426 18.9005 7.62874L17.5649 13.8748C15.0466 13.9151 12.5958 14.6847 10.5092 16.0896C9.44798 15.0963 7.77514 15.1455 6.77682 16.2059C5.77851 17.2618 5.82798 18.9263 6.89374 19.9196C7.1006 20.112 7.33894 20.2775 7.60425 20.3938C7.58627 20.6578 7.58627 20.9218 7.60425 21.1858C7.60425 25.2171 12.326 28.4967 18.1495 28.4967C23.973 28.4967 28.6947 25.2216 28.6947 21.1858C28.7127 20.9218 28.7127 20.6578 28.6947 20.3938C29.6031 19.9419 30.1742 19.0113 30.1562 18.0001ZM12.0652 19.8032C12.0652 18.8099 12.8791 18.0001 13.8774 18.0001C14.8757 18.0001 15.6897 18.8099 15.6897 19.8032C15.6897 20.7965 14.8757 21.6064 13.8774 21.6064C12.8746 21.5974 12.0652 20.7965 12.0652 19.8032ZM22.5744 24.7518C21.2883 25.7138 19.7144 26.2059 18.1045 26.1388C16.4946 26.2059 14.9207 25.7138 13.6346 24.7518C13.4637 24.546 13.4952 24.2372 13.702 24.0672C13.8819 23.9196 14.1382 23.9196 14.3226 24.0672C15.4109 24.8592 16.7375 25.2618 18.0865 25.1992C19.4356 25.2708 20.7667 24.886 21.8684 24.103C22.0663 23.9106 22.3901 23.9151 22.5834 24.112C22.7768 24.3088 22.7723 24.631 22.5744 24.8234V24.7518ZM22.2507 21.669C21.2523 21.669 20.4384 20.8592 20.4384 19.8659C20.4384 18.8726 21.2523 18.0627 22.2507 18.0627C23.249 18.0627 24.0629 18.8726 24.0629 19.8659C24.1034 20.8592 23.3254 21.6959 22.3271 21.7361C22.2956 21.7361 22.2686 21.7361 22.2372 21.7361L22.2507 21.669Z" fill="white"/>
</svg>
