<svg width="12" height="12" viewBox="0 0 12 12" fill="none" xmlns="http://www.w3.org/2000/svg">
<path d="M11.1403 4.98517L7.39031 1.23517C7.3379 1.18269 7.27109 1.14694 7.19836 1.13243C7.12562 1.11792 7.05021 1.12531 6.98167 1.15366C6.91313 1.182 6.85454 1.23004 6.8133 1.29169C6.77206 1.35334 6.75004 1.42584 6.75 1.50001V3.39142C5.53406 3.49548 4.1911 4.09079 3.08625 5.02782C1.75594 6.15657 0.927658 7.6111 0.753752 9.12329C0.740162 9.24086 0.764 9.35971 0.821873 9.46295C0.879746 9.56618 0.968705 9.64853 1.07609 9.69828C1.18348 9.74802 1.30382 9.76263 1.41999 9.74002C1.53616 9.71742 1.64224 9.65874 1.72313 9.57235C2.23875 9.02345 4.07344 7.28767 6.75 7.13485V9.00001C6.75004 9.07418 6.77206 9.14668 6.8133 9.20833C6.85454 9.26998 6.91313 9.31801 6.98167 9.34636C7.05021 9.37471 7.12562 9.3821 7.19836 9.36759C7.27109 9.35308 7.3379 9.31733 7.39031 9.26485L11.1403 5.51485C11.2104 5.44455 11.2498 5.34931 11.2498 5.25001C11.2498 5.15071 11.2104 5.05547 11.1403 4.98517ZM7.5 8.09485V6.75001C7.5 6.65055 7.46049 6.55517 7.39017 6.48484C7.31984 6.41452 7.22446 6.37501 7.125 6.37501C5.80875 6.37501 4.52672 6.7186 3.31453 7.39688C2.69716 7.74387 2.12194 8.16101 1.60031 8.64001C1.87219 7.52251 2.5575 6.45985 3.57141 5.5997C4.65985 4.67673 5.98828 4.12501 7.125 4.12501C7.22446 4.12501 7.31984 4.0855 7.39017 4.01517C7.46049 3.94485 7.5 3.84947 7.5 3.75001V2.40563L10.3448 5.25001L7.5 8.09485Z" fill="#AEAEAE"/>
</svg>
