<svg width="28" height="28" viewBox="0 0 28 28" fill="none" xmlns="http://www.w3.org/2000/svg">
<path d="M26.9784 13.5144L21.9844 6.02984C21.8254 5.79012 21.6096 5.59346 21.3561 5.45739C21.1027 5.32132 20.8195 5.25007 20.5319 5.25H4.375C3.91087 5.25 3.46575 5.43437 3.13756 5.76256C2.80937 6.09075 2.625 6.53587 2.625 7V21C2.625 21.4641 2.80937 21.9092 3.13756 22.2374C3.46575 22.5656 3.91087 22.75 4.375 22.75H20.5319C20.8193 22.7495 21.1022 22.6781 21.3555 22.5423C21.6089 22.4065 21.8248 22.2104 21.9844 21.9713L26.9752 14.4856C27.0716 14.3422 27.1233 14.1734 27.1239 14.0005C27.1245 13.8276 27.0739 13.6585 26.9784 13.5144ZM20.5319 21H4.375V7H20.5319L25.1978 14L20.5319 21Z" fill="#BDBDBD"/>
</svg>
